<svg width="25" height="25" viewBox="0 0 25 25" fill="none" xmlns="http://www.w3.org/2000/svg">
<g clip-path="url(#clip0_242_451)">
<path d="M22.9166 13.1944C22.8252 13.195 22.7346 13.1775 22.65 13.1429C22.5654 13.1083 22.4884 13.0574 22.4235 12.9931L12.4999 3.0625L2.57633 12.9931C2.44348 13.1068 2.27259 13.1663 2.09782 13.1595C1.92304 13.1528 1.75725 13.0803 1.63357 12.9566C1.5099 12.833 1.43744 12.6672 1.43069 12.4924C1.42394 12.3176 1.48339 12.1467 1.59716 12.0139L12.0138 1.59722C12.1439 1.46788 12.3199 1.39528 12.5034 1.39528C12.6869 1.39528 12.8629 1.46788 12.993 1.59722L23.4097 12.0139C23.5052 12.1114 23.5699 12.2349 23.5957 12.3689C23.6215 12.503 23.6071 12.6417 23.5545 12.7676C23.5019 12.8936 23.4134 13.0013 23.2999 13.0772C23.1864 13.1531 23.0531 13.1939 22.9166 13.1944Z" fill="#333333"/>
<path d="M12.4998 5.40973L4.1665 13.7708V22.2222C4.1665 22.5906 4.31283 22.9439 4.5733 23.2043C4.83377 23.4648 5.18704 23.6111 5.55539 23.6111H10.4165V16.6667H14.5832V23.6111H19.4443C19.8126 23.6111 20.1659 23.4648 20.4264 23.2043C20.6868 22.9439 20.8332 22.5906 20.8332 22.2222V13.7222L12.4998 5.40973Z" fill="#333333"/>
</g>
<defs>
<clipPath id="clip0_242_451">
<rect width="25" height="25" fill="white"/>
</clipPath>
</defs>
</svg>
